<mxfile host="app.diagrams.net" modified="2022-03-14T05:11:20.408Z" agent="5.0 (Windows NT 10.0; Win64; x64) AppleWebKit/537.36 (KHTML, like Gecko) Chrome/99.0.4844.51 Safari/537.36" etag="teLwZSIoYhHPSyzwz4rB" version="16.6.4" type="github" pages="2">
  <diagram id="rJXPXW3HnMYkDMf3mS7e" name="Page-1">
    <mxGraphModel dx="716" dy="339" grid="1" gridSize="10" guides="1" tooltips="1" connect="1" arrows="1" fold="1" page="1" pageScale="1" pageWidth="827" pageHeight="1169" math="0" shadow="0">
      <root>
        <mxCell id="0" />
        <mxCell id="1" parent="0" />
        <mxCell id="eYHF-Ms1NYGs89z_I7Qa-5" value="" style="rounded=0;whiteSpace=wrap;html=1;fillColor=#fff2cc;strokeColor=#d6b656;" vertex="1" parent="1">
          <mxGeometry x="350" y="300" width="40" height="20" as="geometry" />
        </mxCell>
        <mxCell id="eYHF-Ms1NYGs89z_I7Qa-6" value="" style="rounded=0;whiteSpace=wrap;html=1;fillColor=#fff2cc;strokeColor=#d6b656;" vertex="1" parent="1">
          <mxGeometry x="350" y="320" width="40" height="20" as="geometry" />
        </mxCell>
        <mxCell id="eYHF-Ms1NYGs89z_I7Qa-8" style="edgeStyle=orthogonalEdgeStyle;rounded=0;orthogonalLoop=1;jettySize=auto;html=1;exitX=0.5;exitY=1;exitDx=0;exitDy=0;" edge="1" parent="1" source="eYHF-Ms1NYGs89z_I7Qa-7">
          <mxGeometry relative="1" as="geometry">
            <mxPoint x="370.2068965517242" y="410" as="targetPoint" />
          </mxGeometry>
        </mxCell>
        <mxCell id="eYHF-Ms1NYGs89z_I7Qa-21" style="edgeStyle=orthogonalEdgeStyle;rounded=0;orthogonalLoop=1;jettySize=auto;html=1;exitX=0.5;exitY=1;exitDx=0;exitDy=0;entryX=0.5;entryY=0;entryDx=0;entryDy=0;" edge="1" parent="1" source="eYHF-Ms1NYGs89z_I7Qa-7" target="eYHF-Ms1NYGs89z_I7Qa-12">
          <mxGeometry relative="1" as="geometry" />
        </mxCell>
        <mxCell id="eYHF-Ms1NYGs89z_I7Qa-22" style="edgeStyle=orthogonalEdgeStyle;rounded=0;orthogonalLoop=1;jettySize=auto;html=1;exitX=0.5;exitY=1;exitDx=0;exitDy=0;entryX=0.5;entryY=0;entryDx=0;entryDy=0;" edge="1" parent="1" source="eYHF-Ms1NYGs89z_I7Qa-7" target="eYHF-Ms1NYGs89z_I7Qa-18">
          <mxGeometry relative="1" as="geometry" />
        </mxCell>
        <mxCell id="eYHF-Ms1NYGs89z_I7Qa-7" value="" style="rounded=0;whiteSpace=wrap;html=1;fillColor=#fff2cc;strokeColor=#d6b656;" vertex="1" parent="1">
          <mxGeometry x="350" y="340" width="40" height="20" as="geometry" />
        </mxCell>
        <mxCell id="eYHF-Ms1NYGs89z_I7Qa-9" value="2,3,4" style="rounded=0;whiteSpace=wrap;html=1;fillColor=#fff2cc;strokeColor=#d6b656;" vertex="1" parent="1">
          <mxGeometry x="350" y="410" width="40" height="20" as="geometry" />
        </mxCell>
        <mxCell id="eYHF-Ms1NYGs89z_I7Qa-10" value="2,4,5" style="rounded=0;whiteSpace=wrap;html=1;fillColor=#fff2cc;strokeColor=#d6b656;" vertex="1" parent="1">
          <mxGeometry x="350" y="430" width="40" height="20" as="geometry" />
        </mxCell>
        <mxCell id="eYHF-Ms1NYGs89z_I7Qa-12" value="" style="rounded=0;whiteSpace=wrap;html=1;fillColor=#fff2cc;strokeColor=#d6b656;" vertex="1" parent="1">
          <mxGeometry x="190" y="410" width="40" height="20" as="geometry" />
        </mxCell>
        <mxCell id="eYHF-Ms1NYGs89z_I7Qa-13" value="" style="rounded=0;whiteSpace=wrap;html=1;fillColor=#fff2cc;strokeColor=#d6b656;" vertex="1" parent="1">
          <mxGeometry x="190" y="430" width="40" height="20" as="geometry" />
        </mxCell>
        <mxCell id="eYHF-Ms1NYGs89z_I7Qa-26" style="edgeStyle=orthogonalEdgeStyle;rounded=0;orthogonalLoop=1;jettySize=auto;html=1;exitX=0.5;exitY=1;exitDx=0;exitDy=0;entryX=0.5;entryY=0;entryDx=0;entryDy=0;" edge="1" parent="1" source="eYHF-Ms1NYGs89z_I7Qa-14" target="eYHF-Ms1NYGs89z_I7Qa-23">
          <mxGeometry relative="1" as="geometry" />
        </mxCell>
        <mxCell id="eYHF-Ms1NYGs89z_I7Qa-30" style="edgeStyle=orthogonalEdgeStyle;rounded=0;orthogonalLoop=1;jettySize=auto;html=1;exitX=0.5;exitY=1;exitDx=0;exitDy=0;entryX=0.5;entryY=0;entryDx=0;entryDy=0;" edge="1" parent="1" source="eYHF-Ms1NYGs89z_I7Qa-14" target="eYHF-Ms1NYGs89z_I7Qa-27">
          <mxGeometry relative="1" as="geometry" />
        </mxCell>
        <mxCell id="eYHF-Ms1NYGs89z_I7Qa-14" value="" style="rounded=0;whiteSpace=wrap;html=1;fillColor=#fff2cc;strokeColor=#d6b656;" vertex="1" parent="1">
          <mxGeometry x="190" y="450" width="40" height="20" as="geometry" />
        </mxCell>
        <mxCell id="eYHF-Ms1NYGs89z_I7Qa-18" value="3,4,6" style="rounded=0;whiteSpace=wrap;html=1;fillColor=#fff2cc;strokeColor=#d6b656;" vertex="1" parent="1">
          <mxGeometry x="510" y="410" width="40" height="20" as="geometry" />
        </mxCell>
        <mxCell id="eYHF-Ms1NYGs89z_I7Qa-23" value="1,2,3" style="rounded=0;whiteSpace=wrap;html=1;fillColor=#fff2cc;strokeColor=#d6b656;" vertex="1" parent="1">
          <mxGeometry x="190" y="520" width="40" height="20" as="geometry" />
        </mxCell>
        <mxCell id="eYHF-Ms1NYGs89z_I7Qa-24" value="1,2,6" style="rounded=0;whiteSpace=wrap;html=1;fillColor=#fff2cc;strokeColor=#d6b656;" vertex="1" parent="1">
          <mxGeometry x="190" y="540" width="40" height="20" as="geometry" />
        </mxCell>
        <mxCell id="eYHF-Ms1NYGs89z_I7Qa-27" value="1,3,4" style="rounded=0;whiteSpace=wrap;html=1;fillColor=#fff2cc;strokeColor=#d6b656;" vertex="1" parent="1">
          <mxGeometry x="270" y="520" width="40" height="20" as="geometry" />
        </mxCell>
        <mxCell id="eYHF-Ms1NYGs89z_I7Qa-31" value="4,5,6" style="rounded=0;whiteSpace=wrap;html=1;fillColor=#fff2cc;strokeColor=#d6b656;" vertex="1" parent="1">
          <mxGeometry x="190" y="560" width="40" height="20" as="geometry" />
        </mxCell>
        <mxCell id="eYHF-Ms1NYGs89z_I7Qa-35" value="" style="rounded=0;whiteSpace=wrap;html=1;fillColor=#fff2cc;strokeColor=#d6b656;" vertex="1" parent="1">
          <mxGeometry x="120" y="260" width="30" height="20" as="geometry" />
        </mxCell>
        <mxCell id="eYHF-Ms1NYGs89z_I7Qa-36" value="" style="rounded=0;whiteSpace=wrap;html=1;fillColor=#fff2cc;strokeColor=#d6b656;" vertex="1" parent="1">
          <mxGeometry x="120" y="280" width="30" height="20" as="geometry" />
        </mxCell>
        <mxCell id="eYHF-Ms1NYGs89z_I7Qa-42" style="edgeStyle=orthogonalEdgeStyle;rounded=0;orthogonalLoop=1;jettySize=auto;html=1;exitX=0.5;exitY=1;exitDx=0;exitDy=0;" edge="1" parent="1" source="eYHF-Ms1NYGs89z_I7Qa-37">
          <mxGeometry relative="1" as="geometry">
            <mxPoint x="70" y="370" as="targetPoint" />
          </mxGeometry>
        </mxCell>
        <mxCell id="eYHF-Ms1NYGs89z_I7Qa-43" style="edgeStyle=orthogonalEdgeStyle;rounded=0;orthogonalLoop=1;jettySize=auto;html=1;exitX=0.5;exitY=1;exitDx=0;exitDy=0;" edge="1" parent="1" source="eYHF-Ms1NYGs89z_I7Qa-37">
          <mxGeometry relative="1" as="geometry">
            <mxPoint x="135.0344827586207" y="380" as="targetPoint" />
          </mxGeometry>
        </mxCell>
        <mxCell id="eYHF-Ms1NYGs89z_I7Qa-44" style="edgeStyle=orthogonalEdgeStyle;rounded=0;orthogonalLoop=1;jettySize=auto;html=1;exitX=0.5;exitY=1;exitDx=0;exitDy=0;" edge="1" parent="1" source="eYHF-Ms1NYGs89z_I7Qa-37">
          <mxGeometry relative="1" as="geometry">
            <mxPoint x="200.0000000000001" y="370" as="targetPoint" />
          </mxGeometry>
        </mxCell>
        <mxCell id="eYHF-Ms1NYGs89z_I7Qa-37" value="" style="rounded=0;whiteSpace=wrap;html=1;fillColor=#fff2cc;strokeColor=#d6b656;" vertex="1" parent="1">
          <mxGeometry x="120" y="300" width="30" height="20" as="geometry" />
        </mxCell>
      </root>
    </mxGraphModel>
  </diagram>
  <diagram id="VmtqtLpCyd2Ofb7SmypI" name="Page-2">
    <mxGraphModel dx="1038" dy="491" grid="1" gridSize="10" guides="1" tooltips="1" connect="1" arrows="1" fold="1" page="1" pageScale="1" pageWidth="827" pageHeight="1169" math="0" shadow="0">
      <root>
        <mxCell id="3ZnSRIgT3-6xZRlppYe1-0" />
        <mxCell id="3ZnSRIgT3-6xZRlppYe1-1" parent="3ZnSRIgT3-6xZRlppYe1-0" />
      </root>
    </mxGraphModel>
  </diagram>
</mxfile>
